<svg preserveAspectRatio="none" width="100%" height="100%" overflow="visible" style="display: block;" viewBox="0 0 22 22" fill="none" xmlns="http://www.w3.org/2000/svg">
<g id="baggage-claim" style="mix-blend-mode:difference">
<path id="Vector" d="M20.1667 16.5H5.5C5.01377 16.5 4.54745 16.3069 4.20364 15.963C3.85982 15.6192 3.66667 15.1529 3.66667 14.6667V6.41667C3.66667 5.93044 3.47351 5.46412 3.1297 5.1203C2.78588 4.77649 2.31956 4.58333 1.83333 4.58333M9.625 9.16667H15.125M12.375 6.41667V11.9167M18.3333 18.3333C18.3333 19.3459 17.5125 20.1667 16.5 20.1667C15.4875 20.1667 14.6667 19.3459 14.6667 18.3333C14.6667 17.3208 15.4875 16.5 16.5 16.5C17.5125 16.5 18.3333 17.3208 18.3333 18.3333ZM10.0833 18.3333C10.0833 19.3459 9.26252 20.1667 8.25 20.1667C7.23748 20.1667 6.41667 19.3459 6.41667 18.3333C6.41667 17.3208 7.23748 16.5 8.25 16.5C9.26252 16.5 10.0833 17.3208 10.0833 18.3333Z" stroke="var(--stroke-0, white)" style="stroke:white;stroke-opacity:1;" stroke-width="2" stroke-linecap="round" stroke-linejoin="round"/>
</g>
</svg>
