<svg preserveAspectRatio="none" width="100%" height="100%" overflow="visible" style="display: block;" viewBox="0 0 21.3343 18.6694" fill="none" xmlns="http://www.w3.org/2000/svg">
<path id="Vector" fill-rule="evenodd" clip-rule="evenodd" d="M10.6668 5.92059L13.0135 3.59525C13.6386 2.97805 14.4817 2.63196 15.3602 2.63196C16.2386 2.63196 17.0817 2.97805 17.7068 3.59525C18.0147 3.89923 18.2591 4.26131 18.4259 4.66048C18.5927 5.05964 18.6786 5.48796 18.6786 5.92059C18.6786 6.35321 18.5927 6.78153 18.4259 7.1807C18.2591 7.57987 18.0147 7.94194 17.7068 8.24592L10.6668 15.2233L3.62682 8.24725C3.31858 7.94323 3.07383 7.58099 2.90678 7.18157C2.73972 6.78216 2.65369 6.35353 2.65369 5.92059C2.65369 5.48764 2.73972 5.05901 2.90678 4.6596C3.07383 4.26018 3.31858 3.89794 3.62682 3.59392C4.25193 2.97672 5.09502 2.63063 5.97349 2.63063C6.85195 2.63063 7.69505 2.97672 8.32015 3.59392V3.59525L10.6668 5.92059ZM1.75482 10.1113L1.75882 10.1166L10.1882 18.4713C10.3152 18.5981 10.4873 18.6694 10.6668 18.6694C10.8463 18.6694 11.0185 18.5981 11.1455 18.4713L19.5748 10.1166L19.5788 10.1113L19.5842 10.1073C20.1385 9.56004 20.5787 8.90816 20.8792 8.18946C21.1796 7.47077 21.3343 6.69955 21.3343 5.92059C21.3343 5.14162 21.1796 4.37041 20.8792 3.65171C20.5787 2.93301 20.1385 2.28114 19.5842 1.73392C18.459 0.622953 16.9414 0 15.3602 0C13.7789 0 12.2613 0.622953 11.1362 1.73392L11.1322 1.73925L11.1268 1.74325L10.6668 2.20059L10.2068 1.74459L10.2015 1.74059L10.1975 1.73659C9.0723 0.62562 7.55472 0.00266647 5.97349 0.00266647C4.39225 0.00266647 2.87468 0.62562 1.74949 1.73659C1.1953 2.28378 0.755285 2.93557 0.454965 3.65415C0.154645 4.37272 0 5.14378 0 5.92259C0 6.70139 0.154645 7.47245 0.454965 8.19103C0.755285 8.9096 1.1953 9.56139 1.74949 10.1086L1.75482 10.1126V10.1113Z" fill="var(--fill-0, #44546F)"/>
</svg>
